					<svg xmlns="http://www.w3.org/2000/svg" viewBox="0 0 369.87 120.58" class="oak-logo">
						<style>
							path { fill: #000000; }
							.oak-logo-highlight { fill: #00A3E0; }
						</style>
						<path d="M60.29,0h0C26.99,0,0,26.99,0,60.29h0c0,33.3,26.99,60.29,60.29,60.29h0c33.3,0,60.29-27,60.29-60.29h0C120.58,26.99,93.59,0,60.29,0h0ZM103.76,60.3c0,24.01-19.46,43.47-43.47,43.47h0c-24.01,0-43.47-19.46-43.47-43.47h0c0-24.01,19.46-43.47,43.47-43.47h0c24.01,0,43.47,19.46,43.47,43.47h0Z"
							  class="oak-logo-highlight" />
						<path d="M159.67,46.05c7.54,0,13.58,6.37,13.58,14.28s-6.03,14.2-13.58,14.2-13.54-6.29-13.54-14.2,6-14.28,13.54-14.28ZM159.67,69.39c5.02.26,9.31-3.6,9.58-8.62.26-5.02-3.6-9.31-8.62-9.58-5.02-.26-9.31,3.6-9.58,8.62,0,.17-.01.34-.01.52-.08,4.87,3.76,8.91,8.63,9.06Z" />
						<path d="M177.72,73.11l11.72-26.63c.1-.26.36-.44.64-.43h.38c.29-.02.55.16.64.43l11.61,26.63c.18.34.05.77-.29.95-.11.06-.23.09-.35.08h-3.28c-.57,0-.83-.24-1.09-.79l-1.85-4.27h-11.27l-1.85,4.27c-.15.47-.6.8-1.09.79h-3.28c-.39.01-.71-.29-.72-.68,0-.12.02-.24.08-.35h0ZM194,64.69l-3.77-8.7h-.11l-3.7,8.7h7.58Z" />
						<path d="M209.92,47.4c-.02-.5.37-.93.88-.95,0,0,.02,0,.02,0h3.32c.51.02.91.44.91.95v10.68l9.5-11.24c.16-.24.43-.39.72-.4h3.77c.47,0,.84.39.83.86,0,.21-.09.41-.23.56l-9.84,11.63,10.56,13.25c.28.39.2.93-.19,1.22-.14.1-.31.16-.49.17h-4.11c-.26.02-.51-.08-.68-.28l-9.84-12.74v12.06c0,.51-.4.93-.91.95h-3.32c-.5,0-.91-.42-.9-.93,0,0,0-.02,0-.02v-25.79h0Z" />
						<path d="M238.28,47.2c-.01-.41.31-.74.72-.75h3.47c.4.02.71.35.72.75v22.2h9.61c.41.01.73.35.72.75,0,0,0,0,0,0v3.25c.01.41-.31.74-.72.75h-13.8c-.41-.01-.73-.35-.72-.75,0,0,0,0,0,0v-26.19h0Z" />
						<path d="M258.87,73.11l11.72-26.63c.1-.26.36-.44.64-.43h.38c.29-.02.55.16.64.43l11.61,26.63c.18.34.05.77-.29.95-.11.06-.23.09-.35.08h-3.28c-.56,0-.83-.24-1.09-.79l-1.85-4.27h-11.28l-1.85,4.27c-.15.47-.59.79-1.09.79h-3.28c-.39.01-.71-.29-.72-.68,0-.12.02-.24.08-.35h0ZM275.16,64.69l-3.77-8.7h-.11l-3.7,8.7h7.58Z" />
						<path d="M291.08,46.77c0-.39.32-.71.72-.71h.94l15.68,17.49h.04v-16.34c-.01-.41.31-.74.72-.75h3.47c.4.02.71.35.71.75v26.62c0,.39-.32.71-.71.71h-.9l-15.76-18.16h-.04v17.01c.01.41-.31.74-.72.75h-3.43c-.4-.02-.71-.35-.72-.75v-26.62Z" />
						<path d="M322.66,47.2c-.01-.39.29-.73.68-.75h8.94c7.28,0,13.23,6.21,13.23,13.81s-5.96,13.89-13.23,13.89h-8.94c-.39-.03-.69-.36-.68-.75v-26.19ZM331.82,69.32c4.9,0,8.48-3.88,8.48-9.06s-3.58-9.02-8.48-9.02h-4.3v18.08h4.3Z" />
						<path d="M352.71,70.26l1.36-2.45c.21-.42.72-.58,1.14-.37.05.03.1.06.14.09.19.12,3.24,2.46,5.69,2.46,1.76.13,3.3-1.2,3.42-2.96,0-.03,0-.06,0-.09,0-2.02-1.62-3.4-4.79-4.75-3.55-1.5-7.09-3.88-7.09-8.54,0-3.52,2.49-7.6,8.48-7.6,2.73.06,5.37.99,7.54,2.65.39.32.49.88.23,1.31l-1.43,2.26c-.3.47-.87.79-1.32.47-.3-.2-3.17-2.17-5.24-2.17-1.67-.13-3.14,1.1-3.32,2.77,0,1.86,1.39,3.13,4.45,4.43,3.66,1.54,7.88,3.84,7.88,8.94,0,4.08-3.35,7.83-8.67,7.83-3.06.08-6.04-1.02-8.3-3.09-.34-.36-.53-.55-.19-1.19h0Z" />
					</svg>
